<svg xmlns="http://www.w3.org/2000/svg" width="40" height="40" viewBox="0 0 40 40"><path fill="#E44F26" d="M34 7.908l-2.578 28.88L19.834 40 8.277 36.792 5.703 7.908H34z"/><path fill="#F1662A" d="M19.852 37.545l9.362-2.597 2.204-24.678H19.852v27.275z"/><path fill="#EBEBEB" d="M14.84 17.355h5.012v-3.542h-8.883l.084.95.871 9.763h7.928v-3.543h-4.688l-.324-3.628zm.799 8.941h-3.557l.496 5.562 7.256 2.016.018-.004v-3.687l-.016.004-3.945-1.065-.252-2.826z"/><path fill="#010101" d="M8.336.059h1.8v1.779h1.647V.059h1.8v5.386h-1.8V3.642h-1.647v1.803h-1.8V.059zm7.613 1.786h-1.584V.059h4.971v1.786H17.75v3.6h-1.8l-.001-3.6zM20.125.059h1.877l1.155 1.893L24.31.059h1.878v5.386h-1.793v-2.67L23.157 4.69h-.031l-1.24-1.915v2.669h-1.761V.059zm6.96 0h1.8v3.606h2.532v1.78h-4.332V.059z"/><path fill="#FFF" d="M19.839 24.525h4.362l-.411 4.594-3.951 1.066v3.686l7.263-2.014.053-.598.832-9.326.087-.951H19.84v3.543h-.001zm0-7.179v.009h8.556l.072-.796.161-1.796.084-.95h-8.873v3.533z"/></svg>