<?xml version="1.0" encoding="utf-8"?>
<!-- Generator: Adobe Illustrator 15.1.0, SVG Export Plug-In . SVG Version: 6.00 Build 0)  -->
<!DOCTYPE svg PUBLIC "-//W3C//DTD SVG 1.1//EN" "http://www.w3.org/Graphics/SVG/1.1/DTD/svg11.dtd">
<svg version="1.1" id="Layer_1" xmlns="http://www.w3.org/2000/svg" xmlns:xlink="http://www.w3.org/1999/xlink" x="0px" y="0px"
	 width="40px" height="40px" viewBox="0 0 40 40" enable-background="new 0 0 40 40" xml:space="preserve">
<g>
	<path fill="#E44F26" d="M34,7.908l-2.578,28.88L19.834,40L8.277,36.792L5.703,7.908H34L34,7.908z"/>
	<path fill="#F1662A" d="M19.852,37.545l9.362-2.597l2.204-24.678H19.852V37.545L19.852,37.545z"/>
	<path fill="#EBEBEB" d="M14.84,17.355h5.012v-3.542h-8.883l0.084,0.95l0.871,9.763h7.928v-3.543h-4.688L14.84,17.355L14.84,17.355z
		"/>
	<path fill="#EBEBEB" d="M15.639,26.296h-3.557l0.496,5.562l7.256,2.016l0.018-0.004v-3.687l-0.016,0.004l-3.945-1.065
		L15.639,26.296L15.639,26.296z"/>
	<path fill="#010101" d="M8.336,0.059h1.8v1.779h1.647V0.059h1.8v5.386h-1.8V3.642h-1.647v1.803h-1.8V0.059L8.336,0.059L8.336,0.059
		z"/>
	<path fill="#010101" d="M15.949,1.845h-1.584V0.059h4.971v1.786H17.75v3.6h-1.8L15.949,1.845L15.949,1.845L15.949,1.845z"/>
	<path fill="#010101" d="M20.125,0.059h1.877l1.155,1.893l1.153-1.893h1.878v5.386h-1.793V2.775L23.157,4.69h-0.031l-1.24-1.915
		v2.669h-1.761V0.059L20.125,0.059z"/>
	<path fill="#010101" d="M27.085,0.059h1.8v3.606h2.532v1.78h-4.332V0.059L27.085,0.059z"/>
	<path fill="#FFFFFF" d="M19.839,24.525h4.362l-0.411,4.594l-3.951,1.066v3.686l7.263-2.014l0.053-0.598l0.832-9.326l0.087-0.951
		h-8.234V24.525L19.839,24.525z"/>
	<path fill="#FFFFFF" d="M19.839,17.346v0.009h8.556l0.072-0.796l0.161-1.796l0.084-0.95h-8.873V17.346L19.839,17.346z"/>
</g>
</svg>
